<?xml version="1.0" encoding="UTF-8"?><svg xmlns="http://www.w3.org/2000/svg" xmlns:xlink="http://www.w3.org/1999/xlink" fill-opacity="1" color-rendering="auto" color-interpolation="auto" stroke="black" text-rendering="auto" stroke-linecap="square" width="640" stroke-miterlimit="10" stroke-opacity="1" shape-rendering="auto" fill="black" stroke-dasharray="none" font-weight="normal" stroke-width="1" height="1122" font-family="'Dialog'" font-style="normal" stroke-linejoin="miter" font-size="12" stroke-dashoffset="0" image-rendering="auto">
  <!--Generated by ySVG-->
  <defs id="genericDefs"/>
  <g>
    <defs id="defs1">
      <linearGradient x1="234.7016" gradientUnits="userSpaceOnUse" x2="314.7016" y1="298.7012" y2="338.7012" id="linearGradient1" spreadMethod="pad">
        <stop stop-opacity="1" stop-color="rgb(232,238,247)" offset="0%"/>
        <stop stop-opacity="1" stop-color="rgb(183,201,227)" offset="100%"/>
      </linearGradient>
      <linearGradient x1="234.7016" gradientUnits="userSpaceOnUse" x2="314.7016" y1="0" y2="40" id="linearGradient2" spreadMethod="pad">
        <stop stop-opacity="1" stop-color="rgb(232,238,247)" offset="0%"/>
        <stop stop-opacity="1" stop-color="rgb(183,201,227)" offset="100%"/>
      </linearGradient>
      <linearGradient x1="234.7016" gradientUnits="userSpaceOnUse" x2="314.7016" y1="70" y2="110" id="linearGradient3" spreadMethod="pad">
        <stop stop-opacity="1" stop-color="rgb(232,238,247)" offset="0%"/>
        <stop stop-opacity="1" stop-color="rgb(183,201,227)" offset="100%"/>
      </linearGradient>
      <linearGradient x1="234.7016" gradientUnits="userSpaceOnUse" x2="314.7016" y1="228.7012" y2="268.7012" id="linearGradient4" spreadMethod="pad">
        <stop stop-opacity="1" stop-color="rgb(232,238,247)" offset="0%"/>
        <stop stop-opacity="1" stop-color="rgb(183,201,227)" offset="100%"/>
      </linearGradient>
      <linearGradient x1="115" gradientUnits="userSpaceOnUse" x2="195" y1="368.7012" y2="408.7012" id="linearGradient5" spreadMethod="pad">
        <stop stop-opacity="1" stop-color="rgb(232,238,247)" offset="0%"/>
        <stop stop-opacity="1" stop-color="rgb(183,201,227)" offset="100%"/>
      </linearGradient>
      <linearGradient x1="234.7016" gradientUnits="userSpaceOnUse" x2="314.7016" y1="841.1035" y2="881.1035" id="linearGradient6" spreadMethod="pad">
        <stop stop-opacity="1" stop-color="rgb(232,238,247)" offset="0%"/>
        <stop stop-opacity="1" stop-color="rgb(183,201,227)" offset="100%"/>
      </linearGradient>
      <linearGradient x1="115" gradientUnits="userSpaceOnUse" x2="195" y1="508.7012" y2="548.7012" id="linearGradient7" spreadMethod="pad">
        <stop stop-opacity="1" stop-color="rgb(232,238,247)" offset="0%"/>
        <stop stop-opacity="1" stop-color="rgb(183,201,227)" offset="100%"/>
      </linearGradient>
      <linearGradient x1="115" gradientUnits="userSpaceOnUse" x2="195" y1="597.4023" y2="637.4023" id="linearGradient8" spreadMethod="pad">
        <stop stop-opacity="1" stop-color="rgb(232,238,247)" offset="0%"/>
        <stop stop-opacity="1" stop-color="rgb(183,201,227)" offset="100%"/>
      </linearGradient>
      <linearGradient x1="115" gradientUnits="userSpaceOnUse" x2="195" y1="438.7012" y2="478.7012" id="linearGradient9" spreadMethod="pad">
        <stop stop-opacity="1" stop-color="rgb(232,238,247)" offset="0%"/>
        <stop stop-opacity="1" stop-color="rgb(183,201,227)" offset="100%"/>
      </linearGradient>
      <linearGradient x1="115" gradientUnits="userSpaceOnUse" x2="195" y1="752.4023" y2="792.4023" id="linearGradient10" spreadMethod="pad">
        <stop stop-opacity="1" stop-color="rgb(232,238,247)" offset="0%"/>
        <stop stop-opacity="1" stop-color="rgb(183,201,227)" offset="100%"/>
      </linearGradient>
      <linearGradient x1="115" gradientUnits="userSpaceOnUse" x2="195" y1="841.1035" y2="881.1035" id="linearGradient11" spreadMethod="pad">
        <stop stop-opacity="1" stop-color="rgb(232,238,247)" offset="0%"/>
        <stop stop-opacity="1" stop-color="rgb(183,201,227)" offset="100%"/>
      </linearGradient>
      <linearGradient x1="115" gradientUnits="userSpaceOnUse" x2="195" y1="911.1035" y2="951.1035" id="linearGradient12" spreadMethod="pad">
        <stop stop-opacity="1" stop-color="rgb(232,238,247)" offset="0%"/>
        <stop stop-opacity="1" stop-color="rgb(183,201,227)" offset="100%"/>
      </linearGradient>
      <linearGradient x1="115" gradientUnits="userSpaceOnUse" x2="195" y1="981.1035" y2="1021.1035" id="linearGradient13" spreadMethod="pad">
        <stop stop-opacity="1" stop-color="rgb(232,238,247)" offset="0%"/>
        <stop stop-opacity="1" stop-color="rgb(183,201,227)" offset="100%"/>
      </linearGradient>
      <linearGradient x1="304.7016" gradientUnits="userSpaceOnUse" x2="384.7016" y1="597.4023" y2="637.4023" id="linearGradient14" spreadMethod="pad">
        <stop stop-opacity="1" stop-color="rgb(232,238,247)" offset="0%"/>
        <stop stop-opacity="1" stop-color="rgb(183,201,227)" offset="100%"/>
      </linearGradient>
      <linearGradient x1="304.7016" gradientUnits="userSpaceOnUse" x2="384.7016" y1="682.4023" y2="722.4023" id="linearGradient15" spreadMethod="pad">
        <stop stop-opacity="1" stop-color="rgb(232,238,247)" offset="0%"/>
        <stop stop-opacity="1" stop-color="rgb(183,201,227)" offset="100%"/>
      </linearGradient>
      <linearGradient x1="304.7016" gradientUnits="userSpaceOnUse" x2="384.7016" y1="752.4023" y2="792.4023" id="linearGradient16" spreadMethod="pad">
        <stop stop-opacity="1" stop-color="rgb(232,238,247)" offset="0%"/>
        <stop stop-opacity="1" stop-color="rgb(183,201,227)" offset="100%"/>
      </linearGradient>
      <linearGradient x1="115" gradientUnits="userSpaceOnUse" x2="195" y1="1051.1035" y2="1091.1035" id="linearGradient17" spreadMethod="pad">
        <stop stop-opacity="1" stop-color="rgb(232,238,247)" offset="0%"/>
        <stop stop-opacity="1" stop-color="rgb(183,201,227)" offset="100%"/>
      </linearGradient>
      <linearGradient x1="5" gradientUnits="userSpaceOnUse" x2="85" y1="508.7012" y2="548.7012" id="linearGradient18" spreadMethod="pad">
        <stop stop-opacity="1" stop-color="rgb(232,238,247)" offset="0%"/>
        <stop stop-opacity="1" stop-color="rgb(183,201,227)" offset="100%"/>
      </linearGradient>
      <linearGradient x1="414.7016" gradientUnits="userSpaceOnUse" x2="494.7016" y1="682.4023" y2="722.4023" id="linearGradient19" spreadMethod="pad">
        <stop stop-opacity="1" stop-color="rgb(232,238,247)" offset="0%"/>
        <stop stop-opacity="1" stop-color="rgb(183,201,227)" offset="100%"/>
      </linearGradient>
      <linearGradient x1="534.4032" gradientUnits="userSpaceOnUse" x2="614.4032" y1="752.4023" y2="792.4023" id="linearGradient20" spreadMethod="pad">
        <stop stop-opacity="1" stop-color="rgb(232,238,247)" offset="0%"/>
        <stop stop-opacity="1" stop-color="rgb(183,201,227)" offset="100%"/>
      </linearGradient>
      <linearGradient x1="234.7016" gradientUnits="userSpaceOnUse" x2="314.7016" y1="158.7012" y2="198.7012" id="linearGradient21" spreadMethod="pad">
        <stop stop-opacity="1" stop-color="rgb(232,238,247)" offset="0%"/>
        <stop stop-opacity="1" stop-color="rgb(183,201,227)" offset="100%"/>
      </linearGradient>
      <linearGradient x1="115" gradientUnits="userSpaceOnUse" x2="195" y1="682.4023" y2="722.4023" id="linearGradient22" spreadMethod="pad">
        <stop stop-opacity="1" stop-color="rgb(232,238,247)" offset="0%"/>
        <stop stop-opacity="1" stop-color="rgb(183,201,227)" offset="100%"/>
      </linearGradient>
      <clipPath clipPathUnits="userSpaceOnUse" id="clipPath1">
        <path d="M0 0 L640 0 L640 1122 L0 1122 L0 0 Z"/>
      </clipPath>
      <clipPath clipPathUnits="userSpaceOnUse" id="clipPath2">
        <path d="M-10 -15 L630 -15 L630 1107 L-10 1107 L-10 -15 Z"/>
      </clipPath>
    </defs>
    <g fill="url(#linearGradient1)" stroke-miterlimit="1.45" transform="matrix(1,0,0,1,10,15)" stroke-linecap="butt" stroke="url(#linearGradient1)">
      <path d="M274.7016 298.7012 L314.7016 318.7012 L274.7016 338.7012 L234.7016 318.7012 Z" clip-path="url(#clipPath2)" stroke="none"/>
      <path fill="none" d="M274.7016 298.7012 L314.7016 318.7012 L274.7016 338.7012 L234.7016 318.7012 Z" clip-path="url(#clipPath2)" stroke="black"/>
      <text x="256.3559" y="323.415" clip-path="url(#clipPath2)" fill="black" font-family="sans-serif" stroke="none" xml:space="preserve">mode?</text>
    </g>
    <g fill="url(#linearGradient2)" stroke-miterlimit="1.45" transform="matrix(1,0,0,1,10,15)" stroke-linecap="butt" stroke="url(#linearGradient2)">
      <ellipse rx="40" ry="20" clip-path="url(#clipPath2)" cx="274.7016" cy="20" stroke="none"/>
      <ellipse clip-path="url(#clipPath2)" fill="none" rx="40" cx="274.7016" ry="20" cy="20" stroke="black"/>
      <text x="263.0327" y="24.7139" clip-path="url(#clipPath2)" fill="black" font-family="sans-serif" stroke="none" xml:space="preserve">start</text>
    </g>
    <g fill="url(#linearGradient3)" stroke-miterlimit="1.45" transform="matrix(1,0,0,1,10,15)" stroke-linecap="butt" stroke="url(#linearGradient3)">
      <path d="M274.7016 70 L314.7016 90 L274.7016 110 L234.7016 90 Z" clip-path="url(#clipPath2)" stroke="none"/>
      <path fill="none" d="M274.7016 70 L314.7016 90 L274.7016 110 L234.7016 90 Z" clip-path="url(#clipPath2)" stroke="black"/>
      <text x="255.0229" y="94.7139" clip-path="url(#clipPath2)" fill="black" font-family="sans-serif" stroke="none" xml:space="preserve">image?</text>
    </g>
    <g fill="url(#linearGradient4)" stroke-miterlimit="1.45" transform="matrix(1,0,0,1,10,15)" stroke-linecap="butt" stroke="url(#linearGradient4)">
      <path d="M234.7016 228.7012 L304.7016 228.7012 L314.7016 248.7012 L304.7016 268.7012 L234.7016 268.7012 Z" clip-path="url(#clipPath2)" stroke="none"/>
      <path fill="none" d="M234.7016 228.7012 L304.7016 228.7012 L314.7016 248.7012 L304.7016 268.7012 L234.7016 268.7012 Z" clip-path="url(#clipPath2)" stroke="black"/>
      <text x="246.6908" y="253.415" clip-path="url(#clipPath2)" fill="black" font-family="sans-serif" stroke="none" xml:space="preserve">show GD1</text>
    </g>
    <g fill="url(#linearGradient5)" stroke-miterlimit="1.45" transform="matrix(1,0,0,1,10,15)" stroke-linecap="butt" stroke="url(#linearGradient5)">
      <path d="M115 368.7012 L185 368.7012 L195 388.7012 L185 408.7012 L115 408.7012 Z" clip-path="url(#clipPath2)" stroke="none"/>
      <path fill="none" d="M115 368.7012 L185 368.7012 L195 388.7012 L185 408.7012 L115 408.7012 Z" clip-path="url(#clipPath2)" stroke="black"/>
      <text x="131.6592" y="386.0645" clip-path="url(#clipPath2)" fill="black" font-family="sans-serif" stroke="none" xml:space="preserve">show UI:</text>
      <text x="134.6621" y="400.7656" clip-path="url(#clipPath2)" fill="black" font-family="sans-serif" stroke="none" xml:space="preserve">set ROI</text>
    </g>
    <g fill="url(#linearGradient6)" stroke-miterlimit="1.45" transform="matrix(1,0,0,1,10,15)" stroke-linecap="butt" stroke="url(#linearGradient6)">
      <rect x="234.7016" y="841.1035" clip-path="url(#clipPath2)" width="80" rx="20" ry="20" height="40" stroke="none"/>
      <rect x="234.7016" y="841.1035" clip-path="url(#clipPath2)" fill="none" width="80" rx="20" ry="20" height="40" stroke="black"/>
      <text x="261.0258" y="865.8174" clip-path="url(#clipPath2)" fill="black" font-family="sans-serif" stroke="none" xml:space="preserve">abort</text>
    </g>
    <g fill="url(#linearGradient7)" stroke-miterlimit="1.45" transform="matrix(1,0,0,1,10,15)" stroke-linecap="butt" stroke="url(#linearGradient7)">
      <path d="M155 508.7012 L195 528.7012 L155 548.7012 L115 528.7012 Z" clip-path="url(#clipPath2)" stroke="none"/>
      <path fill="none" d="M155 508.7012 L195 528.7012 L155 548.7012 L115 528.7012 Z" clip-path="url(#clipPath2)" stroke="black"/>
      <text x="129.6523" y="533.415" clip-path="url(#clipPath2)" fill="black" font-family="sans-serif" stroke="none" xml:space="preserve">ok/cancel</text>
    </g>
    <g fill="url(#linearGradient8)" stroke-miterlimit="1.45" transform="matrix(1,0,0,1,10,15)" stroke-linecap="butt" stroke="url(#linearGradient8)">
      <path d="M115 597.4023 L185 597.4023 L195 617.4023 L185 637.4023 L115 637.4023 Z" clip-path="url(#clipPath2)" stroke="none"/>
      <path fill="none" d="M115 597.4023 L185 597.4023 L195 617.4023 L185 637.4023 L115 637.4023 Z" clip-path="url(#clipPath2)" stroke="black"/>
      <text x="126.9893" y="622.1162" clip-path="url(#clipPath2)" fill="black" font-family="sans-serif" stroke="none" xml:space="preserve">show GD2</text>
    </g>
    <g fill="url(#linearGradient9)" stroke-miterlimit="1.45" transform="matrix(1,0,0,1,10,15)" stroke-linecap="butt" stroke="url(#linearGradient9)">
      <path d="M115 438.7012 L195 438.7012 L185 478.7012 L125 478.7012 Z" clip-path="url(#clipPath2)" stroke="none"/>
      <path fill="none" d="M115 438.7012 L195 438.7012 L185 478.7012 L125 478.7012 Z" clip-path="url(#clipPath2)" stroke="black"/>
      <text x="134.6621" y="463.415" clip-path="url(#clipPath2)" fill="black" font-family="sans-serif" stroke="none" xml:space="preserve">set ROI</text>
    </g>
    <g fill="url(#linearGradient10)" stroke-miterlimit="1.45" transform="matrix(1,0,0,1,10,15)" stroke-linecap="butt" stroke="url(#linearGradient10)">
      <path d="M155 752.4023 L195 772.4023 L155 792.4023 L115 772.4023 Z" clip-path="url(#clipPath2)" stroke="none"/>
      <path fill="none" d="M155 752.4023 L195 772.4023 L155 792.4023 L115 772.4023 Z" clip-path="url(#clipPath2)" stroke="black"/>
      <text x="129.6523" y="777.1162" clip-path="url(#clipPath2)" fill="black" font-family="sans-serif" stroke="none" xml:space="preserve">ok/cancel</text>
    </g>
    <g fill="url(#linearGradient11)" stroke-miterlimit="1.45" transform="matrix(1,0,0,1,10,15)" stroke-linecap="butt" stroke="url(#linearGradient11)">
      <path d="M115 841.1035 L195 841.1035 L195 881.1035 L115 881.1035 Z" clip-path="url(#clipPath2)" stroke="none"/>
      <path fill="none" d="M115 841.1035 L195 841.1035 L195 881.1035 L115 881.1035 Z" clip-path="url(#clipPath2)" stroke="black"/>
      <text x="124.9795" y="858.4668" clip-path="url(#clipPath2)" fill="black" font-family="sans-serif" stroke="none" xml:space="preserve">create data</text>
      <text x="137.665" y="873.168" clip-path="url(#clipPath2)" fill="black" font-family="sans-serif" stroke="none" xml:space="preserve">for CC</text>
    </g>
    <g fill="url(#linearGradient12)" stroke-miterlimit="1.45" transform="matrix(1,0,0,1,10,15)" stroke-linecap="butt" stroke="url(#linearGradient12)">
      <rect x="115" width="80" height="40" y="911.1035" clip-path="url(#clipPath2)" stroke="none"/>
      <rect x="115" y="911.1035" clip-path="url(#clipPath2)" fill="none" width="80" height="40" stroke="black"/>
      <path fill="none" d="M125 911.1035 L125 951.1035 M185 911.1035 L185 951.1035 M125 911.1035 Z" clip-path="url(#clipPath2)" stroke="black"/>
      <text x="140.665" y="928.4668" clip-path="url(#clipPath2)" fill="black" font-family="sans-serif" stroke="none" xml:space="preserve">cross</text>
      <text x="126.9863" y="943.168" clip-path="url(#clipPath2)" fill="black" font-family="sans-serif" stroke="none" xml:space="preserve">correlation</text>
    </g>
    <g fill="url(#linearGradient13)" stroke-miterlimit="1.45" transform="matrix(1,0,0,1,10,15)" stroke-linecap="butt" stroke="url(#linearGradient13)">
      <path d="M115 981.1035 L185 981.1035 L195 1001.1035 L185 1021.1035 L115 1021.1035 Z" clip-path="url(#clipPath2)" stroke="none"/>
      <path fill="none" d="M115 981.1035 L185 981.1035 L195 1001.1035 L185 1021.1035 L115 1021.1035 Z" clip-path="url(#clipPath2)" stroke="black"/>
      <text x="121.6543" y="1005.8174" clip-path="url(#clipPath2)" fill="black" font-family="sans-serif" stroke="none" xml:space="preserve">show results</text>
    </g>
    <g fill="url(#linearGradient14)" stroke-miterlimit="1.45" transform="matrix(1,0,0,1,10,15)" stroke-linecap="butt" stroke="url(#linearGradient14)">
      <path d="M304.7016 597.4023 L374.7016 597.4023 L384.7016 617.4023 L374.7016 637.4023 L304.7016 637.4023 Z" clip-path="url(#clipPath2)" stroke="none"/>
      <path fill="none" d="M304.7016 597.4023 L374.7016 597.4023 L384.7016 617.4023 L374.7016 637.4023 L304.7016 637.4023 Z" clip-path="url(#clipPath2)" stroke="black"/>
      <text x="321.3608" y="614.7656" clip-path="url(#clipPath2)" fill="black" font-family="sans-serif" stroke="none" xml:space="preserve">show UI:</text>
      <text x="308.3471" y="629.4668" clip-path="url(#clipPath2)" fill="black" font-family="sans-serif" stroke="none" xml:space="preserve">manuel mode</text>
    </g>
    <g fill="url(#linearGradient15)" stroke-miterlimit="1.45" transform="matrix(1,0,0,1,10,15)" stroke-linecap="butt" stroke="url(#linearGradient15)">
      <path d="M304.7016 682.4023 L384.7016 682.4023 L374.7016 722.4023 L314.7016 722.4023 Z" clip-path="url(#clipPath2)" stroke="none"/>
      <path fill="none" d="M304.7016 682.4023 L384.7016 682.4023 L374.7016 722.4023 L314.7016 722.4023 Z" clip-path="url(#clipPath2)" stroke="black"/>
      <text x="325.0229" y="699.7656" clip-path="url(#clipPath2)" fill="black" font-family="sans-serif" stroke="none" xml:space="preserve">manuel</text>
      <text x="329.6928" y="714.4668" clip-path="url(#clipPath2)" fill="black" font-family="sans-serif" stroke="none" xml:space="preserve">mode</text>
    </g>
    <g fill="url(#linearGradient16)" stroke-miterlimit="1.45" transform="matrix(1,0,0,1,10,15)" stroke-linecap="butt" stroke="url(#linearGradient16)">
      <path d="M344.7016 752.4023 L384.7016 772.4023 L344.7016 792.4023 L304.7016 772.4023 Z" clip-path="url(#clipPath2)" stroke="none"/>
      <path fill="none" d="M344.7016 752.4023 L384.7016 772.4023 L344.7016 792.4023 L304.7016 772.4023 Z" clip-path="url(#clipPath2)" stroke="black"/>
      <text x="319.3539" y="777.1162" clip-path="url(#clipPath2)" fill="black" font-family="sans-serif" stroke="none" xml:space="preserve">ok/cancel</text>
    </g>
    <g fill="url(#linearGradient17)" stroke-miterlimit="1.45" transform="matrix(1,0,0,1,10,15)" stroke-linecap="butt" stroke="url(#linearGradient17)">
      <rect x="115" y="1051.1035" clip-path="url(#clipPath2)" width="80" rx="20" ry="20" height="40" stroke="none"/>
      <rect x="115" y="1051.1035" clip-path="url(#clipPath2)" fill="none" width="80" rx="20" ry="20" height="40" stroke="black"/>
      <text x="118.9795" y="1068.4668" clip-path="url(#clipPath2)" fill="black" font-family="sans-serif" stroke="none" xml:space="preserve">drift detection</text>
      <text x="134.3193" y="1083.168" clip-path="url(#clipPath2)" fill="black" font-family="sans-serif" stroke="none" xml:space="preserve">finished</text>
    </g>
    <g fill="url(#linearGradient18)" stroke-miterlimit="1.45" transform="matrix(1,0,0,1,10,15)" stroke-linecap="butt" stroke="url(#linearGradient18)">
      <path d="M5 508.7012 L85 508.7012 L85 548.7012 L5 548.7012 Z" clip-path="url(#clipPath2)" stroke="none"/>
      <path fill="none" d="M5 508.7012 L85 508.7012 L85 548.7012 L5 548.7012 Z" clip-path="url(#clipPath2)" stroke="black"/>
      <text x="18.3193" y="526.0645" clip-path="url(#clipPath2)" fill="black" font-family="sans-serif" stroke="none" xml:space="preserve">determine</text>
      <text x="14.6543" y="540.7656" clip-path="url(#clipPath2)" fill="black" font-family="sans-serif" stroke="none" xml:space="preserve">parameters</text>
    </g>
    <g fill="url(#linearGradient19)" stroke-miterlimit="1.45" transform="matrix(1,0,0,1,10,15)" stroke-linecap="butt" stroke="url(#linearGradient19)">
      <path d="M454.7016 682.4023 L494.7016 702.4023 L454.7016 722.4023 L414.7016 702.4023 Z" clip-path="url(#clipPath2)" stroke="none"/>
      <path fill="none" d="M454.7016 682.4023 L494.7016 702.4023 L454.7016 722.4023 L414.7016 702.4023 Z" clip-path="url(#clipPath2)" stroke="black"/>
      <text x="425.3549" y="707.1162" clip-path="url(#clipPath2)" fill="black" font-family="sans-serif" stroke="none" xml:space="preserve">normalize?</text>
    </g>
    <g fill="url(#linearGradient20)" stroke-miterlimit="1.45" transform="matrix(1,0,0,1,10,15)" stroke-linecap="butt" stroke="url(#linearGradient20)">
      <rect x="534.4032" width="80" height="40" y="752.4023" clip-path="url(#clipPath2)" stroke="none"/>
      <rect x="534.4032" y="752.4023" clip-path="url(#clipPath2)" fill="none" width="80" height="40" stroke="black"/>
      <path fill="none" d="M544.4032 752.4023 L544.4032 792.4023 M604.4032 752.4023 L604.4032 792.4023 M544.4032 752.4023 Z" clip-path="url(#clipPath2)" stroke="black"/>
      <text x="548.3934" y="769.7656" clip-path="url(#clipPath2)" fill="black" font-family="sans-serif" stroke="none" xml:space="preserve">normalize</text>
      <text x="560.3993" y="784.4668" clip-path="url(#clipPath2)" fill="black" font-family="sans-serif" stroke="none" xml:space="preserve">stack</text>
    </g>
    <g fill="url(#linearGradient21)" stroke-miterlimit="1.45" transform="matrix(1,0,0,1,10,15)" stroke-linecap="butt" stroke="url(#linearGradient21)">
      <rect x="234.7016" width="80" height="40" y="158.7012" clip-path="url(#clipPath2)" stroke="none"/>
      <rect x="234.7016" y="158.7012" clip-path="url(#clipPath2)" fill="none" width="80" height="40" stroke="black"/>
      <path fill="none" d="M244.7016 158.7012 L244.7016 198.7012 M304.7016 158.7012 L304.7016 198.7012 M244.7016 158.7012 Z" clip-path="url(#clipPath2)" stroke="black"/>
      <text x="258.0258" y="176.0645" clip-path="url(#clipPath2)" fill="black" font-family="sans-serif" stroke="none" xml:space="preserve">create</text>
      <text x="260.6977" y="190.7656" clip-path="url(#clipPath2)" fill="black" font-family="sans-serif" stroke="none" xml:space="preserve">stack</text>
    </g>
    <g fill="url(#linearGradient22)" stroke-miterlimit="1.45" transform="matrix(1,0,0,1,10,15)" stroke-linecap="butt" stroke="url(#linearGradient22)">
      <path d="M125 682.4023 L185 682.4023 L195 702.4023 L185 722.4023 L125 722.4023 L115 702.4023 Z" clip-path="url(#clipPath2)" stroke="none"/>
      <path fill="none" d="M125 682.4023 L185 682.4023 L195 702.4023 L185 722.4023 L125 722.4023 L115 702.4023 Z" clip-path="url(#clipPath2)" stroke="black"/>
      <text x="146.9961" y="699.7656" clip-path="url(#clipPath2)" fill="black" font-family="sans-serif" stroke="none" xml:space="preserve">set</text>
      <text x="124.6543" y="714.4668" clip-path="url(#clipPath2)" fill="black" font-family="sans-serif" stroke="none" xml:space="preserve">parameters</text>
    </g>
    <g stroke-linecap="butt" transform="matrix(1,0,0,1,10,15)" stroke-miterlimit="1.45">
      <path fill="none" d="M274.7016 40 L274.7016 62" clip-path="url(#clipPath2)"/>
    </g>
    <g stroke-linecap="butt" transform="matrix(1,0,0,1,10,15)" stroke-miterlimit="1.45">
      <path d="M274.7016 70 L279.7016 58 L274.7016 61 L269.7016 58 Z" clip-path="url(#clipPath2)" stroke="none"/>
      <path fill="none" d="M314.7309 90 L329.7016 90 L329.7016 248.7012 L322.7309 248.7012" clip-path="url(#clipPath2)"/>
      <path d="M314.7309 248.7012 L326.7309 253.7012 L323.7309 248.7012 L326.7309 243.7012 Z" clip-path="url(#clipPath2)" stroke="none"/>
      <text x="306.7602" xml:space="preserve" y="83.3633" font-family="sans-serif" clip-path="url(#clipPath2)" stroke="none">is stack</text>
      <path fill="none" d="M274.7016 268.7012 L274.7016 290.7012" clip-path="url(#clipPath2)"/>
      <path d="M274.7016 298.7012 L279.7016 286.7012 L274.7016 289.7012 L269.7016 286.7012 Z" clip-path="url(#clipPath2)" stroke="none"/>
      <path fill="none" d="M234.6627 318.7012 L155 318.7012 L155 360.6523" clip-path="url(#clipPath2)"/>
      <path d="M155 368.6523 L160 356.6523 L155 359.6523 L150 356.6523 Z" clip-path="url(#clipPath2)" stroke="none"/>
      <text x="170.5512" xml:space="preserve" y="312.0645" font-family="sans-serif" clip-path="url(#clipPath2)" stroke="none">automatic</text>
      <path fill="none" d="M274.7016 338.7012 L274.7016 833.0729" clip-path="url(#clipPath2)"/>
      <path d="M274.7016 841.0729 L279.7016 829.0729 L274.7016 832.0729 L269.7016 829.0729 Z" clip-path="url(#clipPath2)" stroke="none"/>
      <text x="236.0141" xml:space="preserve" y="362.8906" font-family="sans-serif" clip-path="url(#clipPath2)" stroke="none">cancel</text>
      <path fill="none" d="M195 528.7012 L274.7016 528.7012 L274.7016 833.0654" clip-path="url(#clipPath2)"/>
      <path d="M274.7016 841.0654 L279.7016 829.0654 L274.7016 832.0654 L269.7016 829.0654 Z" clip-path="url(#clipPath2)" stroke="none"/>
      <text x="207.125" xml:space="preserve" y="544.7656" font-family="sans-serif" clip-path="url(#clipPath2)" stroke="none">cancel</text>
      <path fill="none" d="M155 548.7012 L155 589.3548" clip-path="url(#clipPath2)"/>
      <path d="M155 597.3548 L160 585.3548 L155 588.3548 L150 585.3548 Z" clip-path="url(#clipPath2)" stroke="none"/>
      <text x="138.3262" xml:space="preserve" y="572.8906" font-family="sans-serif" clip-path="url(#clipPath2)" stroke="none">ok</text>
      <path fill="none" d="M155 408.7012 L155 430.6719" clip-path="url(#clipPath2)"/>
      <path d="M155 438.6719 L160 426.6719 L155 429.6719 L150 426.6719 Z" clip-path="url(#clipPath2)" stroke="none"/>
      <path fill="none" d="M155 478.7012 L155 500.7012" clip-path="url(#clipPath2)"/>
      <path d="M155 508.7012 L160 496.7012 L155 499.7012 L150 496.7012 Z" clip-path="url(#clipPath2)" stroke="none"/>
      <path fill="none" d="M195 772.4023 L259.7016 772.4023 L259.7016 787.4023 L274.7016 787.4023 L274.7016 833.0773" clip-path="url(#clipPath2)"/>
      <path d="M274.7016 841.0773 L279.7016 829.0773 L274.7016 832.0773 L269.7016 829.0773 Z" clip-path="url(#clipPath2)" stroke="none"/>
      <text x="207.125" xml:space="preserve" y="788.4668" font-family="sans-serif" clip-path="url(#clipPath2)" stroke="none">cancel</text>
      <path fill="none" d="M155 792.4023 L155 833.056" clip-path="url(#clipPath2)"/>
      <path d="M155 841.056 L160 829.056 L155 832.056 L150 829.056 Z" clip-path="url(#clipPath2)" stroke="none"/>
      <text x="138.3262" xml:space="preserve" y="816.5918" font-family="sans-serif" clip-path="url(#clipPath2)" stroke="none">ok</text>
      <path fill="none" d="M155 881.1035 L155 903.0742" clip-path="url(#clipPath2)"/>
      <path d="M155 911.0742 L160 899.0742 L155 902.0742 L150 899.0742 Z" clip-path="url(#clipPath2)" stroke="none"/>
      <path fill="none" d="M155 951.1035 L155 973.0742" clip-path="url(#clipPath2)"/>
      <path d="M155 981.0742 L160 969.0742 L155 972.0742 L150 969.0742 Z" clip-path="url(#clipPath2)" stroke="none"/>
      <path fill="none" d="M314.7309 318.7012 L344.7016 318.7012 L344.7016 589.3683" clip-path="url(#clipPath2)"/>
      <path d="M344.7016 597.3683 L349.7016 585.3683 L344.7016 588.3683 L339.7016 585.3683 Z" clip-path="url(#clipPath2)" stroke="none"/>
      <text x="314.5854" xml:space="preserve" y="312.0645" font-family="sans-serif" clip-path="url(#clipPath2)" stroke="none">manuel</text>
      <path fill="none" d="M344.7016 637.4023 L344.7016 674.3584" clip-path="url(#clipPath2)"/>
      <path d="M344.7016 682.3584 L349.7016 670.3584 L344.7016 673.3584 L339.7016 670.3584 Z" clip-path="url(#clipPath2)" stroke="none"/>
      <path fill="none" d="M344.7016 722.4023 L344.7016 744.4023" clip-path="url(#clipPath2)"/>
      <path d="M344.7016 752.4023 L349.7016 740.4023 L344.7016 743.4023 L339.7016 740.4023 Z" clip-path="url(#clipPath2)" stroke="none"/>
      <path fill="none" d="M304.7016 772.4023 L289.7016 772.4023 L289.7016 787.4023 L274.7016 787.4023 L274.7016 833.0773" clip-path="url(#clipPath2)"/>
      <path d="M274.7016 841.0773 L279.7016 829.0773 L274.7016 832.0773 L269.7016 829.0773 Z" clip-path="url(#clipPath2)" stroke="none"/>
      <text x="275.2953" xml:space="preserve" y="765.7656" font-family="sans-serif" clip-path="url(#clipPath2)" stroke="none">cancel</text>
      <path fill="none" d="M344.7016 792.4023 L344.7016 1001.1035 L203 1001.1035" clip-path="url(#clipPath2)"/>
      <path d="M195 1001.1035 L207 1006.1035 L204 1001.1035 L207 996.1035 Z" clip-path="url(#clipPath2)" stroke="none"/>
      <text x="328.0278" xml:space="preserve" y="816.5918" font-family="sans-serif" clip-path="url(#clipPath2)" stroke="none">ok</text>
      <path fill="none" d="M155 1021.1035 L155 1043.0742" clip-path="url(#clipPath2)"/>
      <path d="M155 1051.0742 L160 1039.0742 L155 1042.0742 L150 1039.0742 Z" clip-path="url(#clipPath2)" stroke="none"/>
      <path fill="none" d="M119.9688 458.7012 L45 458.7012 L45 500.6523" clip-path="url(#clipPath2)"/>
      <path d="M45 508.6523 L50 496.6523 L45 499.6523 L40 496.6523 Z" clip-path="url(#clipPath2)" stroke="none"/>
      <path fill="none" d="M45 548.7012 L45 617.4023 L106.9658 617.4023" clip-path="url(#clipPath2)"/>
      <path d="M114.9658 617.4023 L102.9658 612.4023 L105.9658 617.4023 L102.9658 622.4023 Z" clip-path="url(#clipPath2)" stroke="none"/>
      <path fill="none" d="M371.3683 637.4023 L371.3683 652.4023 L454.7016 652.4023 L454.7016 674.4023" clip-path="url(#clipPath2)"/>
      <path d="M454.7016 682.4023 L459.7016 670.4023 L454.7016 673.4023 L449.7016 670.4023 Z" clip-path="url(#clipPath2)" stroke="none"/>
      <path fill="none" d="M494.7405 702.4023 L574.4032 702.4023 L574.4032 582.4023 L344.7016 582.4023 L344.7016 589.373" clip-path="url(#clipPath2)"/>
      <path d="M344.7016 597.373 L349.7016 585.373 L344.7016 588.373 L339.7016 585.373 Z" clip-path="url(#clipPath2)" stroke="none"/>
      <text x="506.8266" xml:space="preserve" y="695.7656" font-family="sans-serif" clip-path="url(#clipPath2)" stroke="none">no</text>
      <path fill="none" d="M454.7016 722.4023 L454.7016 772.4023 L526.3643 772.4023" clip-path="url(#clipPath2)"/>
      <path d="M534.3643 772.4023 L522.3643 767.4023 L525.3643 772.4023 L522.3643 777.4023 Z" clip-path="url(#clipPath2)" stroke="none"/>
      <text x="432.0278" xml:space="preserve" y="746.5918" font-family="sans-serif" clip-path="url(#clipPath2)" stroke="none">yes</text>
      <path fill="none" d="M574.4032 752.3608 L574.4032 582.4023 L344.7016 582.4023 L344.7016 589.373" clip-path="url(#clipPath2)"/>
      <path d="M344.7016 597.373 L349.7016 585.373 L344.7016 588.373 L339.7016 585.373 Z" clip-path="url(#clipPath2)" stroke="none"/>
      <path fill="none" d="M274.7016 110 L274.7016 150.6536" clip-path="url(#clipPath2)"/>
      <path d="M274.7016 158.6536 L279.7016 146.6536 L274.7016 149.6536 L269.7016 146.6536 Z" clip-path="url(#clipPath2)" stroke="none"/>
      <text x="191.3305" xml:space="preserve" y="134.1895" font-family="sans-serif" clip-path="url(#clipPath2)" stroke="none">is single image</text>
      <path fill="none" d="M274.7016 198.7012 L274.7016 220.6719" clip-path="url(#clipPath2)"/>
      <path d="M274.7016 228.6719 L279.7016 216.6719 L274.7016 219.6719 L269.7016 216.6719 Z" clip-path="url(#clipPath2)" stroke="none"/>
      <path fill="none" d="M155 637.4023 L155 674.3584" clip-path="url(#clipPath2)"/>
      <path d="M155 682.3584 L160 670.3584 L155 673.3584 L150 670.3584 Z" clip-path="url(#clipPath2)" stroke="none"/>
      <path fill="none" d="M155 722.4023 L155 744.4023" clip-path="url(#clipPath2)"/>
      <path d="M155 752.4023 L160 740.4023 L155 743.4023 L150 740.4023 Z" clip-path="url(#clipPath2)" stroke="none"/>
    </g>
  </g>
</svg>
