<?xml version="1.0" encoding="UTF-8"?><svg xmlns="http://www.w3.org/2000/svg" xmlns:xlink="http://www.w3.org/1999/xlink" fill-opacity="1" color-rendering="auto" color-interpolation="auto" stroke="black" text-rendering="auto" stroke-linecap="square" width="656" stroke-miterlimit="10" stroke-opacity="1" shape-rendering="auto" fill="black" stroke-dasharray="none" font-weight="normal" stroke-width="1" height="753" font-family="'Dialog'" font-style="normal" stroke-linejoin="miter" font-size="12" stroke-dashoffset="0" image-rendering="auto">
  <!--Generated by ySVG-->
  <defs id="genericDefs"/>
  <g>
    <defs id="defs1">
      <linearGradient x1="267" gradientUnits="userSpaceOnUse" x2="347" y1="0" y2="40" id="linearGradient1" spreadMethod="pad">
        <stop stop-opacity="1" stop-color="rgb(232,238,247)" offset="0%"/>
        <stop stop-opacity="1" stop-color="rgb(183,201,227)" offset="100%"/>
      </linearGradient>
      <linearGradient x1="425.7016" gradientUnits="userSpaceOnUse" x2="505.7016" y1="155" y2="195" id="linearGradient2" spreadMethod="pad">
        <stop stop-opacity="1" stop-color="rgb(232,238,247)" offset="0%"/>
        <stop stop-opacity="1" stop-color="rgb(183,201,227)" offset="100%"/>
      </linearGradient>
      <linearGradient x1="267" gradientUnits="userSpaceOnUse" x2="347" y1="682.4023" y2="722.4023" id="linearGradient3" spreadMethod="pad">
        <stop stop-opacity="1" stop-color="rgb(232,238,247)" offset="0%"/>
        <stop stop-opacity="1" stop-color="rgb(183,201,227)" offset="100%"/>
      </linearGradient>
      <linearGradient x1="267" gradientUnits="userSpaceOnUse" x2="347" y1="383.7012" y2="423.7012" id="linearGradient4" spreadMethod="pad">
        <stop stop-opacity="1" stop-color="rgb(232,238,247)" offset="0%"/>
        <stop stop-opacity="1" stop-color="rgb(183,201,227)" offset="100%"/>
      </linearGradient>
      <linearGradient x1="267" gradientUnits="userSpaceOnUse" x2="347" y1="453.7012" y2="493.7012" id="linearGradient5" spreadMethod="pad">
        <stop stop-opacity="1" stop-color="rgb(232,238,247)" offset="0%"/>
        <stop stop-opacity="1" stop-color="rgb(183,201,227)" offset="100%"/>
      </linearGradient>
      <linearGradient x1="267" gradientUnits="userSpaceOnUse" x2="347" y1="542.4023" y2="582.4023" id="linearGradient6" spreadMethod="pad">
        <stop stop-opacity="1" stop-color="rgb(232,238,247)" offset="0%"/>
        <stop stop-opacity="1" stop-color="rgb(183,201,227)" offset="100%"/>
      </linearGradient>
      <linearGradient x1="267" gradientUnits="userSpaceOnUse" x2="347" y1="85" y2="125" id="linearGradient7" spreadMethod="pad">
        <stop stop-opacity="1" stop-color="rgb(232,238,247)" offset="0%"/>
        <stop stop-opacity="1" stop-color="rgb(183,201,227)" offset="100%"/>
      </linearGradient>
      <linearGradient x1="267" gradientUnits="userSpaceOnUse" x2="347" y1="243.7012" y2="283.7012" id="linearGradient8" spreadMethod="pad">
        <stop stop-opacity="1" stop-color="rgb(232,238,247)" offset="0%"/>
        <stop stop-opacity="1" stop-color="rgb(183,201,227)" offset="100%"/>
      </linearGradient>
      <linearGradient x1="267" gradientUnits="userSpaceOnUse" x2="347" y1="155" y2="195" id="linearGradient9" spreadMethod="pad">
        <stop stop-opacity="1" stop-color="rgb(232,238,247)" offset="0%"/>
        <stop stop-opacity="1" stop-color="rgb(183,201,227)" offset="100%"/>
      </linearGradient>
      <linearGradient x1="267" gradientUnits="userSpaceOnUse" x2="347" y1="313.7012" y2="353.7012" id="linearGradient10" spreadMethod="pad">
        <stop stop-opacity="1" stop-color="rgb(232,238,247)" offset="0%"/>
        <stop stop-opacity="1" stop-color="rgb(183,201,227)" offset="100%"/>
      </linearGradient>
      <linearGradient x1="267" gradientUnits="userSpaceOnUse" x2="347" y1="612.4023" y2="652.4023" id="linearGradient11" spreadMethod="pad">
        <stop stop-opacity="1" stop-color="rgb(232,238,247)" offset="0%"/>
        <stop stop-opacity="1" stop-color="rgb(183,201,227)" offset="100%"/>
      </linearGradient>
      <linearGradient x1="157" gradientUnits="userSpaceOnUse" x2="237" y1="612.4023" y2="652.4023" id="linearGradient12" spreadMethod="pad">
        <stop stop-opacity="1" stop-color="rgb(232,238,247)" offset="0%"/>
        <stop stop-opacity="1" stop-color="rgb(183,201,227)" offset="100%"/>
      </linearGradient>
      <linearGradient x1="550.7016" gradientUnits="userSpaceOnUse" x2="630.7016" y1="0" y2="40" id="linearGradient13" spreadMethod="pad">
        <stop stop-opacity="1" stop-color="rgb(232,238,247)" offset="0%"/>
        <stop stop-opacity="1" stop-color="rgb(183,201,227)" offset="100%"/>
      </linearGradient>
      <linearGradient x1="425.7016" gradientUnits="userSpaceOnUse" x2="505.7016" y1="0" y2="40" id="linearGradient14" spreadMethod="pad">
        <stop stop-opacity="1" stop-color="rgb(232,238,247)" offset="0%"/>
        <stop stop-opacity="1" stop-color="rgb(183,201,227)" offset="100%"/>
      </linearGradient>
      <linearGradient x1="157" gradientUnits="userSpaceOnUse" x2="237" y1="0" y2="40" id="linearGradient15" spreadMethod="pad">
        <stop stop-opacity="1" stop-color="rgb(232,238,247)" offset="0%"/>
        <stop stop-opacity="1" stop-color="rgb(183,201,227)" offset="100%"/>
      </linearGradient>
      <linearGradient x1="5" gradientUnits="userSpaceOnUse" x2="112" y1="0" y2="40" id="linearGradient16" spreadMethod="pad">
        <stop stop-opacity="1" stop-color="rgb(232,238,247)" offset="0%"/>
        <stop stop-opacity="1" stop-color="rgb(183,201,227)" offset="100%"/>
      </linearGradient>
      <clipPath clipPathUnits="userSpaceOnUse" id="clipPath1">
        <path d="M0 0 L656 0 L656 753 L0 753 L0 0 Z"/>
      </clipPath>
      <clipPath clipPathUnits="userSpaceOnUse" id="clipPath2">
        <path d="M-10 -15 L646 -15 L646 738 L-10 738 L-10 -15 Z"/>
      </clipPath>
    </defs>
    <g fill="url(#linearGradient1)" stroke-miterlimit="1.45" transform="matrix(1,0,0,1,10,15)" stroke-linecap="butt" stroke="url(#linearGradient1)">
      <ellipse rx="40" ry="20" clip-path="url(#clipPath2)" cx="307" cy="20" stroke="none"/>
      <ellipse clip-path="url(#clipPath2)" fill="none" rx="40" cx="307" ry="20" cy="20" stroke="black"/>
      <text x="295.3311" y="24.7139" clip-path="url(#clipPath2)" fill="black" font-family="sans-serif" stroke="none" xml:space="preserve">start</text>
    </g>
    <g fill="url(#linearGradient2)" stroke-miterlimit="1.45" transform="matrix(1,0,0,1,10,15)" stroke-linecap="butt" stroke="url(#linearGradient2)">
      <rect x="425.7016" y="155" clip-path="url(#clipPath2)" width="80" rx="20" ry="20" height="40" stroke="none"/>
      <rect x="425.7016" y="155" clip-path="url(#clipPath2)" fill="none" width="80" rx="20" ry="20" height="40" stroke="black"/>
      <text x="452.0258" y="179.7139" clip-path="url(#clipPath2)" fill="black" font-family="sans-serif" stroke="none" xml:space="preserve">abort</text>
    </g>
    <g fill="url(#linearGradient3)" stroke-miterlimit="1.45" transform="matrix(1,0,0,1,10,15)" stroke-linecap="butt" stroke="url(#linearGradient3)">
      <rect x="267" y="682.4023" clip-path="url(#clipPath2)" width="80" rx="20" ry="20" height="40" stroke="none"/>
      <rect x="267" y="682.4023" clip-path="url(#clipPath2)" fill="none" width="80" rx="20" ry="20" height="40" stroke="black"/>
      <text x="268.9873" y="699.7656" clip-path="url(#clipPath2)" fill="black" font-family="sans-serif" stroke="none" xml:space="preserve">drift correction</text>
      <text x="286.3193" y="714.4668" clip-path="url(#clipPath2)" fill="black" font-family="sans-serif" stroke="none" xml:space="preserve">finished</text>
    </g>
    <g fill="url(#linearGradient4)" stroke-miterlimit="1.45" transform="matrix(1,0,0,1,10,15)" stroke-linecap="butt" stroke="url(#linearGradient4)">
      <path d="M267 383.7012 L337 383.7012 L347 403.7012 L337 423.7012 L267 423.7012 Z" clip-path="url(#clipPath2)" stroke="none"/>
      <path fill="none" d="M267 383.7012 L337 383.7012 L347 403.7012 L337 423.7012 L267 423.7012 Z" clip-path="url(#clipPath2)" stroke="black"/>
      <text x="282.3262" y="408.415" clip-path="url(#clipPath2)" fill="black" font-family="sans-serif" stroke="none" xml:space="preserve">show GD</text>
    </g>
    <g fill="url(#linearGradient5)" stroke-miterlimit="1.45" transform="matrix(1,0,0,1,10,15)" stroke-linecap="butt" stroke="url(#linearGradient5)">
      <path d="M307 453.7012 L347 473.7012 L307 493.7012 L267 473.7012 Z" clip-path="url(#clipPath2)" stroke="none"/>
      <path fill="none" d="M307 453.7012 L347 473.7012 L307 493.7012 L267 473.7012 Z" clip-path="url(#clipPath2)" stroke="black"/>
      <text x="277.6533" y="478.415" clip-path="url(#clipPath2)" fill="black" font-family="sans-serif" stroke="none" xml:space="preserve">normalize?</text>
    </g>
    <g fill="url(#linearGradient6)" stroke-miterlimit="1.45" transform="matrix(1,0,0,1,10,15)" stroke-linecap="butt" stroke="url(#linearGradient6)">
      <rect x="267" width="80" height="40" y="542.4023" clip-path="url(#clipPath2)" stroke="none"/>
      <rect x="267" y="542.4023" clip-path="url(#clipPath2)" fill="none" width="80" height="40" stroke="black"/>
      <path fill="none" d="M277 542.4023 L277 582.4023 M337 542.4023 L337 582.4023 M277 542.4023 Z" clip-path="url(#clipPath2)" stroke="black"/>
      <text x="280.9902" y="559.7656" clip-path="url(#clipPath2)" fill="black" font-family="sans-serif" stroke="none" xml:space="preserve">normalize</text>
      <text x="292.9961" y="574.4668" clip-path="url(#clipPath2)" fill="black" font-family="sans-serif" stroke="none" xml:space="preserve">stack</text>
    </g>
    <g fill="url(#linearGradient7)" stroke-miterlimit="1.45" transform="matrix(1,0,0,1,10,15)" stroke-linecap="butt" stroke="url(#linearGradient7)">
      <path d="M277.2 85 L347 85 L336.8 125 L267 125 Z" clip-path="url(#clipPath2)" stroke="none"/>
      <path fill="none" d="M277.2 85 L347 85 L336.8 125 L267 125 Z" clip-path="url(#clipPath2)" stroke="black"/>
      <text x="283.6475" y="102.3633" clip-path="url(#clipPath2)" fill="black" font-family="sans-serif" stroke="none" xml:space="preserve">get data:</text>
      <text x="296.998" y="117.0645" clip-path="url(#clipPath2)" fill="black" font-family="sans-serif" stroke="none" xml:space="preserve">drift</text>
    </g>
    <g fill="url(#linearGradient8)" stroke-miterlimit="1.45" transform="matrix(1,0,0,1,10,15)" stroke-linecap="butt" stroke="url(#linearGradient8)">
      <path d="M267 243.7012 L347 243.7012 L347 283.7012 L267 283.7012 Z" clip-path="url(#clipPath2)" stroke="none"/>
      <path fill="none" d="M267 243.7012 L347 243.7012 L347 283.7012 L267 283.7012 Z" clip-path="url(#clipPath2)" stroke="black"/>
      <text x="283.3193" y="261.0645" clip-path="url(#clipPath2)" fill="black" font-family="sans-serif" stroke="none" xml:space="preserve">calculate</text>
      <text x="284.3213" y="275.7656" clip-path="url(#clipPath2)" fill="black" font-family="sans-serif" stroke="none" xml:space="preserve">opt. shift</text>
    </g>
    <g fill="url(#linearGradient9)" stroke-miterlimit="1.45" transform="matrix(1,0,0,1,10,15)" stroke-linecap="butt" stroke="url(#linearGradient9)">
      <path d="M307 155 L347 175 L307 195 L267 175 Z" clip-path="url(#clipPath2)" stroke="none"/>
      <path fill="none" d="M307 155 L347 175 L307 195 L267 175 Z" clip-path="url(#clipPath2)" stroke="black"/>
      <text x="293.6611" y="179.7139" clip-path="url(#clipPath2)" fill="black" font-family="sans-serif" stroke="none" xml:space="preserve">drift?</text>
    </g>
    <g fill="url(#linearGradient10)" stroke-miterlimit="1.45" transform="matrix(1,0,0,1,10,15)" stroke-linecap="butt" stroke="url(#linearGradient10)">
      <path d="M267 313.7012 L347 313.7012 L347 353.7012 L267 353.7012 Z" clip-path="url(#clipPath2)" stroke="none"/>
      <path fill="none" d="M267 313.7012 L347 313.7012 L347 353.7012 L267 353.7012 Z" clip-path="url(#clipPath2)" stroke="black"/>
      <text x="274.9873" y="338.415" clip-path="url(#clipPath2)" fill="black" font-family="sans-serif" stroke="none" xml:space="preserve">shift images</text>
    </g>
    <g fill="url(#linearGradient11)" stroke-miterlimit="1.45" transform="matrix(1,0,0,1,10,15)" stroke-linecap="butt" stroke="url(#linearGradient11)">
      <path d="M267 612.4023 L337 612.4023 L347 632.4023 L337 652.4023 L267 652.4023 Z" clip-path="url(#clipPath2)" stroke="none"/>
      <path fill="none" d="M267 612.4023 L337 612.4023 L347 632.4023 L337 652.4023 L267 652.4023 Z" clip-path="url(#clipPath2)" stroke="black"/>
      <text x="276.6543" y="637.1162" clip-path="url(#clipPath2)" fill="black" font-family="sans-serif" stroke="none" xml:space="preserve">show result</text>
    </g>
    <g fill="url(#linearGradient12)" stroke-miterlimit="1.45" transform="matrix(1,0,0,1,10,15)" stroke-linecap="butt" stroke="url(#linearGradient12)">
      <path d="M157 612.4023 L227 612.4023 L237 632.4023 L227 652.4023 L157 652.4023 Z" clip-path="url(#clipPath2)" stroke="none"/>
      <path fill="none" d="M157 612.4023 L227 612.4023 L237 632.4023 L227 652.4023 L157 652.4023 Z" clip-path="url(#clipPath2)" stroke="black"/>
      <text x="165.9893" y="629.7656" clip-path="url(#clipPath2)" fill="black" font-family="sans-serif" stroke="none" xml:space="preserve">show norm.</text>
      <text x="182.3281" y="644.4668" clip-path="url(#clipPath2)" fill="black" font-family="sans-serif" stroke="none" xml:space="preserve">result</text>
    </g>
    <g fill="url(#linearGradient13)" stroke-miterlimit="1.45" transform="matrix(1,0,0,1,10,15)" stroke-linecap="butt" stroke="url(#linearGradient13)">
      <rect x="550.7016" width="80" height="40" y="0" clip-path="url(#clipPath2)" stroke="none"/>
    </g>
    <g stroke-width="2" transform="matrix(1,0,0,1,10,15)">
      <path fill="none" d="M560.7016 0 L550.7016 0 L550.7016 40 L560.7016 40" clip-path="url(#clipPath2)"/>
    </g>
    <g stroke-miterlimit="1.45" font-family="sans-serif" transform="matrix(1,0,0,1,10,15)" stroke-linecap="butt">
      <text x="554.3559" xml:space="preserve" y="17.3633" clip-path="url(#clipPath2)" stroke="none">from previous</text>
      <text x="554.6811" xml:space="preserve" y="32.0645" clip-path="url(#clipPath2)" stroke="none">drift detection</text>
    </g>
    <g fill="url(#linearGradient14)" stroke-miterlimit="1.45" transform="matrix(1,0,0,1,10,15)" stroke-linecap="butt" stroke="url(#linearGradient14)">
      <rect x="425.7016" width="80" height="40" y="0" clip-path="url(#clipPath2)" stroke="none"/>
      <rect x="425.7016" y="0" clip-path="url(#clipPath2)" fill="none" width="80" height="40" stroke="black"/>
      <path fill="none" d="M435.7016 0 L435.7016 40 M425.7016 10 L505.7016 10 M435.7016 0 Z" clip-path="url(#clipPath2)" stroke="black"/>
    </g>
    <g fill="url(#linearGradient15)" stroke-miterlimit="1.45" transform="matrix(1,0,0,1,10,15)" stroke-linecap="butt" stroke="url(#linearGradient15)">
      <path d="M157 10 L237 0 L237 40 L157 40 Z" clip-path="url(#clipPath2)" stroke="none"/>
      <path fill="none" d="M157 10 L237 0 L237 40 L157 40 Z" clip-path="url(#clipPath2)" stroke="black"/>
      <text x="165.9805" y="17.3633" clip-path="url(#clipPath2)" fill="black" font-family="sans-serif" stroke="none" xml:space="preserve">user difined</text>
      <text x="167.9873" y="32.0645" clip-path="url(#clipPath2)" fill="black" font-family="sans-serif" stroke="none" xml:space="preserve">drift values</text>
    </g>
    <g fill="url(#linearGradient16)" stroke-miterlimit="1.45" transform="matrix(1,0,0,1,10,15)" stroke-linecap="butt" stroke="url(#linearGradient16)">
      <rect x="5" width="107" height="40" y="0" clip-path="url(#clipPath2)" stroke="none"/>
    </g>
    <g stroke-width="2" transform="matrix(1,0,0,1,10,15)">
      <path fill="none" d="M98.625 0 L112 0 L112 40 L98.625 40" clip-path="url(#clipPath2)"/>
    </g>
    <g stroke-miterlimit="1.45" font-family="sans-serif" transform="matrix(1,0,0,1,10,15)" stroke-linecap="butt">
      <text x="9.4717" xml:space="preserve" y="17.3633" clip-path="url(#clipPath2)" stroke="none">if no drift detection</text>
      <text x="18.7969" xml:space="preserve" y="32.0645" clip-path="url(#clipPath2)" stroke="none">has been done</text>
    </g>
    <g stroke-linecap="butt" transform="matrix(1,0,0,1,10,15)" stroke-miterlimit="1.45">
      <path fill="none" d="M307 423.7012 L307 445.7012" clip-path="url(#clipPath2)"/>
    </g>
    <g stroke-linecap="butt" transform="matrix(1,0,0,1,10,15)" stroke-miterlimit="1.45">
      <path d="M307 453.7012 L312 441.7012 L307 444.7012 L302 441.7012 Z" clip-path="url(#clipPath2)" stroke="none"/>
      <path fill="none" d="M307 493.7012 L307 534.3548" clip-path="url(#clipPath2)"/>
      <path d="M307 542.3548 L312 530.3548 L307 533.3548 L302 530.3548 Z" clip-path="url(#clipPath2)" stroke="none"/>
      <text x="284.3262" xml:space="preserve" y="517.8906" font-family="sans-serif" clip-path="url(#clipPath2)" stroke="none">yes</text>
      <path fill="none" d="M307 40 L307 76.9561" clip-path="url(#clipPath2)"/>
      <path d="M307 84.9561 L312 72.9561 L307 75.9561 L302 72.9561 Z" clip-path="url(#clipPath2)" stroke="none"/>
      <path fill="none" d="M307 125 L307 147" clip-path="url(#clipPath2)"/>
      <path d="M307 155 L312 143 L307 146 L302 143 Z" clip-path="url(#clipPath2)" stroke="none"/>
      <path fill="none" d="M347 175 L417.6631 175" clip-path="url(#clipPath2)"/>
      <path d="M425.6631 175 L413.6631 170 L416.6631 175 L413.6631 180 Z" clip-path="url(#clipPath2)" stroke="none"/>
      <text x="359.125" xml:space="preserve" y="168.3633" font-family="sans-serif" clip-path="url(#clipPath2)" stroke="none">=0</text>
      <path fill="none" d="M307 195 L307 235.6536" clip-path="url(#clipPath2)"/>
      <path d="M307 243.6536 L312 231.6536 L307 234.6536 L302 231.6536 Z" clip-path="url(#clipPath2)" stroke="none"/>
      <text x="285.9844" xml:space="preserve" y="219.1895" font-family="sans-serif" clip-path="url(#clipPath2)" stroke="none">!=0</text>
      <path fill="none" d="M307 283.7012 L307 305.6719" clip-path="url(#clipPath2)"/>
      <path d="M307 313.6719 L312 301.6719 L307 304.6719 L302 301.6719 Z" clip-path="url(#clipPath2)" stroke="none"/>
      <path fill="none" d="M307 353.7012 L307 375.6719" clip-path="url(#clipPath2)"/>
      <path d="M307 383.6719 L312 371.6719 L307 374.6719 L302 371.6719 Z" clip-path="url(#clipPath2)" stroke="none"/>
      <path fill="none" d="M347 473.7012 L362 473.7012 L362 632.4023 L355 632.4023" clip-path="url(#clipPath2)"/>
      <path d="M347 632.4023 L359 637.4023 L356 632.4023 L359 627.4023 Z" clip-path="url(#clipPath2)" stroke="none"/>
      <text x="352.3887" xml:space="preserve" y="467.0645" font-family="sans-serif" clip-path="url(#clipPath2)" stroke="none">no</text>
      <path fill="none" d="M307 582.4023 L307 604.373" clip-path="url(#clipPath2)"/>
      <path d="M307 612.373 L312 600.373 L307 603.373 L302 600.373 Z" clip-path="url(#clipPath2)" stroke="none"/>
      <path fill="none" d="M307 652.4023 L307 674.373" clip-path="url(#clipPath2)"/>
      <path d="M307 682.373 L312 670.373 L307 673.373 L302 670.373 Z" clip-path="url(#clipPath2)" stroke="none"/>
      <path fill="none" d="M266.9658 562.4023 L197 562.4023 L197 604.3535" clip-path="url(#clipPath2)"/>
      <path d="M197 612.3535 L202 600.3535 L197 603.3535 L192 600.3535 Z" clip-path="url(#clipPath2)" stroke="none"/>
      <path fill="none" d="M197 652.4023 L197 702.4023 L258.9658 702.4023" clip-path="url(#clipPath2)"/>
      <path d="M266.9658 702.4023 L254.9658 697.4023 L257.9658 702.4023 L254.9658 707.4023 Z" clip-path="url(#clipPath2)" stroke="none"/>
      <path fill="none" d="M550.6577 20 L513.7016 20" clip-path="url(#clipPath2)"/>
      <path d="M505.7016 20 L517.7016 25 L514.7016 20 L517.7016 15 Z" clip-path="url(#clipPath2)" stroke="none"/>
      <path fill="none" d="M465.7016 40 L465.7016 55 L307 55 L307 76.9707" clip-path="url(#clipPath2)"/>
      <path d="M307 84.9707 L312 72.9707 L307 75.9707 L302 72.9707 Z" clip-path="url(#clipPath2)" stroke="none"/>
      <path fill="none" d="M197 40 L197 55 L307 55 L307 76.9707" clip-path="url(#clipPath2)"/>
      <path d="M307 84.9707 L312 72.9707 L307 75.9707 L302 72.9707 Z" clip-path="url(#clipPath2)" stroke="none"/>
      <path fill="none" d="M112 20 L148.9561 20" clip-path="url(#clipPath2)"/>
      <path d="M156.9561 20 L144.9561 15 L147.9561 20 L144.9561 25 Z" clip-path="url(#clipPath2)" stroke="none"/>
    </g>
  </g>
</svg>
